STARTFONT 2.1
FONT -t-mango-Medium-R-Normal--10-100-75-75-C-100-ISO10646-1
SIZE 10 75 75
FONTBOUNDINGBOX 12 12 0 -2
STARTPROPERTIES 17
POINT_SIZE 100
PIXEL_SIZE 10
RESOLUTION_X 75
RESOLUTION_Y 75
AVERAGE_WIDTH 100
SPACING "C"
CHARSET_ENCODING "1"
CHARSET_REGISTRY "ISO10646"
FOUNDRY "t"
FAMILY_NAME "mango"
_GBDFED_INFO "Edited with gbdfed 1.6."
WEIGHT 10
X_HEIGHT 6
QUAD_WIDTH 12
DEFAULT_CHAR 0
FONT_DESCENT 2
FONT_ASCENT 8
ENDPROPERTIES
CHARS 12
STARTCHAR U+E000
ENCODING 57344
SWIDTH 1152 0
DWIDTH 12 0
BBX 12 12 0 -2
BITMAP
0000
0000
0000
0000
1F80
1080
1080
1080
1080
1F80
0000
0000
ENDCHAR
STARTCHAR char57345
ENCODING 57345
SWIDTH 1152 0
DWIDTH 12 0
BBX 12 12 0 -2
BITMAP
0000
0000
0000
0000
1F80
1F80
1F80
1F80
1F80
1F80
0000
0000
ENDCHAR
STARTCHAR char57346
ENCODING 57346
SWIDTH 1152 0
DWIDTH 12 0
BBX 12 12 0 -2
BITMAP
0000
0000
0000
0000
0300
0280
0280
0200
0E00
0E00
0000
0000
ENDCHAR
STARTCHAR char57347
ENCODING 57347
SWIDTH 1152 0
DWIDTH 12 0
BBX 12 12 0 -2
BITMAP
0000
0000
0000
0000
1000
3F80
1000
0080
1FC0
0080
0000
0000
ENDCHAR
STARTCHAR char57348
ENCODING 57348
SWIDTH 1152 0
DWIDTH 12 0
BBX 12 12 0 -2
BITMAP
0000
0000
0000
0000
0100
0300
1F40
1F40
0300
0100
0000
0000
ENDCHAR
STARTCHAR char57349
ENCODING 57349
SWIDTH 1152 0
DWIDTH 12 0
BBX 12 12 0 -2
BITMAP
0000
0000
0000
0000
0140
0380
1E00
1D00
0700
0900
0000
0000
ENDCHAR
STARTCHAR char57350
ENCODING 57350
SWIDTH 1152 0
DWIDTH 12 0
BBX 12 12 0 -2
BITMAP
0000
0000
0000
0000
7F80
4080
5EC0
5EC0
4080
7F80
0000
0000
ENDCHAR
STARTCHAR char57351
ENCODING 57351
SWIDTH 1152 0
DWIDTH 12 0
BBX 12 12 0 -2
BITMAP
0000
0000
0000
0000
7F80
4080
5CC0
5CC0
4080
7F80
0000
0000
ENDCHAR
STARTCHAR char57352
ENCODING 57352
SWIDTH 1152 0
DWIDTH 12 0
BBX 12 12 0 -2
BITMAP
0000
0000
0000
0000
7F80
4080
58C0
58C0
4080
7F80
0000
0000
ENDCHAR
STARTCHAR char57353
ENCODING 57353
SWIDTH 1152 0
DWIDTH 12 0
BBX 12 12 0 -2
BITMAP
0000
0000
0000
0000
7F80
4080
50C0
50C0
4080
7F80
0000
0000
ENDCHAR
STARTCHAR char57354
ENCODING 57354
SWIDTH 1152 0
DWIDTH 12 0
BBX 12 12 0 -2
BITMAP
0000
0000
0000
0000
7F80
4080
40C0
40C0
4080
7F80
0000
0000
ENDCHAR
STARTCHAR char57355
ENCODING 57355
SWIDTH 1152 0
DWIDTH 12 0
BBX 12 12 0 -2
BITMAP
0000
0000
0020
0070
7FA0
4080
5CC0
5CC0
4080
7F80
0000
0000
ENDCHAR
ENDFONT
