STARTFONT 2.1
FONT -t-mango-Medium-R-Normal--12-100-75-75-P-100-ISO10646-1
SIZE 12 75 75
FONTBOUNDINGBOX 12 8 0 0
STARTPROPERTIES 14
POINT_SIZE 100
PIXEL_SIZE 12
RESOLUTION_X 75
RESOLUTION_Y 75
AVERAGE_WIDTH 100
SPACING "P"
CHARSET_ENCODING "1"
CHARSET_REGISTRY "ISO10646"
FOUNDRY "t"
FAMILY_NAME "mango"
_GBDFED_INFO "Edited with gbdfed 1.6."
DEFAULT_CHAR 0
FONT_DESCENT 2
FONT_ASCENT 10
ENDPROPERTIES
CHARS 14
STARTCHAR U+E000
ENCODING 57344
SWIDTH 640 0
DWIDTH 8 0
BBX 7 6 0 0
BITMAP
7E
42
42
42
42
7E
ENDCHAR
STARTCHAR U+E001
ENCODING 57345
SWIDTH 640 0
DWIDTH 8 0
BBX 6 6 1 0
BITMAP
FC
FC
FC
FC
FC
FC
ENDCHAR
STARTCHAR U+E002
ENCODING 57346
SWIDTH 560 0
DWIDTH 7 0
BBX 6 6 0 0
BITMAP
18
14
14
10
70
70
ENDCHAR
STARTCHAR U+E003
ENCODING 57347
SWIDTH 800 0
DWIDTH 10 0
BBX 8 6 1 0
BITMAP
40
FE
40
02
7F
02
ENDCHAR
STARTCHAR U+E004
ENCODING 57348
SWIDTH 720 0
DWIDTH 9 0
BBX 7 6 1 0
BITMAP
08
18
FA
FA
18
08
ENDCHAR
STARTCHAR U+E005
ENCODING 57349
SWIDTH 640 0
DWIDTH 8 0
BBX 7 6 1 0
BITMAP
0A
1C
F0
E8
38
48
ENDCHAR
STARTCHAR U+E006
ENCODING 57350
SWIDTH 880 0
DWIDTH 11 0
BBX 9 6 1 0
BITMAP
FF00
8100
BD80
BD80
8100
FF00
ENDCHAR
STARTCHAR U+E007
ENCODING 57351
SWIDTH 880 0
DWIDTH 11 0
BBX 9 6 1 0
BITMAP
FF00
8100
B980
B980
8100
FF00
ENDCHAR
STARTCHAR U+E008
ENCODING 57352
SWIDTH 880 0
DWIDTH 11 0
BBX 9 6 1 0
BITMAP
FF00
8100
B180
B180
8100
FF00
ENDCHAR
STARTCHAR U+E009
ENCODING 57353
SWIDTH 880 0
DWIDTH 11 0
BBX 9 6 1 0
BITMAP
FF00
8100
A180
A180
8100
FF00
ENDCHAR
STARTCHAR U+E00A
ENCODING 57354
SWIDTH 880 0
DWIDTH 11 0
BBX 9 6 1 0
BITMAP
FF00
8100
8180
8180
8100
FF00
ENDCHAR
STARTCHAR U+E00B
ENCODING 57355
SWIDTH 960 0
DWIDTH 12 0
BBX 11 8 1 0
BITMAP
0040
00E0
FF40
8100
B980
B980
8100
FF00
ENDCHAR
STARTCHAR U+E00C
ENCODING 57356
SWIDTH 640 0
DWIDTH 8 0
BBX 7 6 0 0
BITMAP
1E
12
72
5E
48
78
ENDCHAR
STARTCHAR char57357
ENCODING 57357
SWIDTH 640 0
DWIDTH 8 0
BBX 6 6 1 0
BITMAP
30
68
68
78
FC
30
ENDCHAR
ENDFONT
